# xmcd CD database file
#
# Track frame offsets:
#	150
#	11047
#	23982
#	33787
#	45455
#	60615
#	74712
#	85882
#	96630
#	109207
#	118377
#	127832
#	137652
#	150185
#	160367
#	170240
#	184442
#	197545
#	205475
#	217847
#	229342
#	241575
#	252325
#	264052
#	273867
#	287845
#	301192
#	311907
#
# Disc length: 4324 seconds
#
# Revision: 0
# Processed by: cddbd v1.5.2PL0 Copyright (c) Steve Scherf et al.
# Submitted via: CDex 1.51
#
DISCID=9510e21c
DTITLE=Jim Reeves - The Very Best Of Jim Reeves
DYEAR=1998
DGENRE=Country
TTITLE0=He'll Have To Go
TTITLE1=Distant Drums
TTITLE2=When Two Worlds Collide
TTITLE3=I Missed You
TTITLE4=The Blizzard
TTITLE5=This Is It
TTITLE6=Moonlight and Roses (Bring Mem'ries Of You)
TTITLE7=You're The Only Good Thing (That's Happened To Me)
TTITLE8=I Love You Because
TTITLE9=I Won't Forget You
TTITLE10=There's A Heartache Following Me
TTITLE11=It Hurts So Much To See You Go
TTITLE12=Not Until The Next Time
TTITLE13=Is It Really Over?
TTITLE14=Snowflake
TTITLE15=Guilty
TTITLE16=I'd Fight The World
TTITLE17=Trying To Forget
TTITLE18=Nobody's Fool
TTITLE19=Welcome To My World
TTITLE20=We Thank Thee
TTITLE21=Where We'll Never Grow Old
TTITLE22=I'll Fly Away
TTITLE23=Across The Bridge
TTITLE24=Have Thine Own Way, Lord
TTITLE25=My Cathedral
TTITLE26=The Night Watch
TTITLE27=I'd Rather Have Jesus
EXTD=YEAR: 1998
EXTT0=
EXTT1=
EXTT2=
EXTT3=
EXTT4=
EXTT5=
EXTT6=
EXTT7=
EXTT8=
EXTT9=
EXTT10=
EXTT11=
EXTT12=
EXTT13=
EXTT14=
EXTT15=
EXTT16=
EXTT17=
EXTT18=
EXTT19=
EXTT20=
EXTT21=
EXTT22=
EXTT23=
EXTT24=
EXTT25=
EXTT26=
EXTT27=
PLAYORDER=
